<?xml version="1.0" encoding="UTF-8" standalone="no"?>
<!DOCTYPE svg PUBLIC "-//W3C//DTD SVG 1.1//EN"
"http://www.w3.org/Graphics/SVG/1.1/DTD/svg11.dtd">


<!-- Page 1 -->
<svg x="0" y="0" width="458" height="500" viewBox="0 0 458 500" version="1.1" xmlns="http://www.w3.org/2000/svg" xmlns:xlink="http://www.w3.org/1999/xlink"
style="display: block;margin-left: auto;margin-right: auto;">
<defs>

<style type="text/css"><![CDATA[

.g1_1{
fill: none;
stroke: #0000FF;
stroke-width: 0.6088194;
stroke-linecap: butt;
stroke-linejoin: miter;
stroke-dasharray: 1,4;
}
.g2_1{
fill: none;
stroke: #FF0000;
stroke-width: 1.2176542;
stroke-linecap: butt;
stroke-linejoin: miter;
stroke-dasharray: 5,5;
}
.g3_1{
fill: none;
stroke: #FF0000;
stroke-width: 1.8265041;
stroke-linecap: butt;
stroke-linejoin: miter;
}
.g4_1{
fill: none;
stroke: #00FF80;
stroke-width: 0.6088194;
stroke-linecap: butt;
stroke-linejoin: miter;
stroke-dasharray: 5,5;
}
.g5_1{
fill: none;
stroke: #00FF80;
stroke-width: 0.6088194;
stroke-linecap: butt;
stroke-linejoin: miter;
stroke-dasharray: 1,4;
}
.g6_1{
fill: none;
stroke: #00FF80;
stroke-width: 0.6088194;
stroke-linecap: butt;
stroke-linejoin: miter;
}
.g7_1{
fill: none;
stroke: #0040BF;
stroke-width: 0.6088194;
stroke-linecap: butt;
stroke-linejoin: miter;
stroke-dasharray: 1,4;
}
.g8_1{
fill: none;
stroke: #0040BF;
stroke-width: 0.6088194;
stroke-linecap: butt;
stroke-linejoin: miter;
}
.g9_1{
fill: none;
stroke: #000000;
stroke-width: 0.6088194;
stroke-linecap: butt;
stroke-linejoin: miter;
}
.g10_1{
}

.s1_1{
font-size: 13.70px;
font-family: CMMI9_7;
fill: TRANSPARENT;
}
.s2_1{
font-size: 13.70px;
font-family: CMR9_8;
fill: TRANSPARENT;
}
.s3_1{
font-size: 15.22px;
font-family: CMR10_9;
fill: TRANSPARENT;
}
.s4_1{
font-size: 15.22px;
font-family: CMMI10_a;
fill: TRANSPARENT;
}
.s5_1{
font-size: 9.13px;
font-family: CMMI6_b;
fill: TRANSPARENT;
}
.s6_1{
font-size: 15.22px;
font-family: MSBM10_c;
fill: TRANSPARENT;
}
.s7_1{
font-size: 10.65px;
font-family: CMSY7_d;
fill: TRANSPARENT;
}
.s8_1{
font-size: 10.65px;
font-family: CMMI7_e;
fill: TRANSPARENT;
}
.s9_1{
font-size: 15.22px;
font-family: CMEX10_f;
fill: TRANSPARENT;
}
text::-moz-selection {
	color: transparent;
	background: rgba(0, 106, 173, 0.4);
}
text::selection {
	color: transparent;
	background: rgba(0, 106, 173, 0.4);
}

]]></style>

</defs>
<path d="M0,0
L0,500
L458,500
L458,0 Z " 
fill="#FFFFFF" stroke="none" />
<path d="M245.5,436.5c0,-8.9,-7.2,-16.2,-16.1,-16.2c-8.9,0,-16.1,7.3,-16.1,16.2c0,8.9,7.2,16.1,16.1,16.1c8.9,0,16.1,-7.2,16.1,-16.1Z" class="g1_1" />
<g fill="#000000" >
<use xlink:href="#f0_1" transform="matrix(9,0,0,9,217,439.9)" />
<use xlink:href="#f1_1" transform="matrix(9,0,0,9,224.2,439.9)" />
</g>
<text 
x="217" 
y="439" 
dx="0" 
class="s1_1"
>ζ</text>

<g fill="#000000" >
<use xlink:href="#f0_3" transform="matrix(9,0,0,9,229.7,439.9)" />
</g>
<text 
x="224" 
y="439" 
dx="0" 
class="s2_1"
>(</text>

<g fill="#000000" >
<use xlink:href="#f1_2" transform="matrix(9,0,0,9,236.2,439.9)" />
</g>
<text 
x="229" 
y="439" 
dx="0" 
class="s1_1"
>s</text>

<text 
x="236" 
y="439" 
dx="0" 
class="s2_1"
>)</text>

<path d="M383.8,385.8c0,-8.4,-6.8,-15.2,-15.2,-15.2c-8.4,0,-15.3,6.8,-15.3,15.2c0,8.4,6.9,15.2,15.3,15.2c8.4,0,15.2,-6.8,15.2,-15.2Z" class="g2_1" />
<path d="M457.8,257.5c0,-8.4,-6.8,-15.2,-15.2,-15.2c-8.4,0,-15.2,6.8,-15.2,15.2c0,8.4,6.8,15.2,15.2,15.2c8.4,0,15.2,-6.8,15.2,-15.2Z" class="g1_1" />
<g fill="#000000" >
<use xlink:href="#f2_5" transform="matrix(10,0,0,10,440.9,262.6)" />
<use xlink:href="#f3_1" transform="matrix(10,0,0,10,438.3,262.6)" />
</g>
<text 
x="440" 
y="262" 
dx="0" 
class="s3_1"
>˙</text>

<text 
x="438" 
y="262" 
dx="0" 
class="s4_1"
>x</text>

<path d="M432.7,111.6c0,-8.7,-7.1,-15.7,-15.8,-15.7c-8.7,0,-15.8,7,-15.8,15.7c0,8.8,7.1,15.8,15.8,15.8c8.7,0,15.8,-7,15.8,-15.8Z" class="g1_1" />
<g fill="#000000" >
<use xlink:href="#f0_2" transform="matrix(9,0,0,9,404.6,114.7)" />
<use xlink:href="#f4_1" transform="matrix(6,0,0,6,415.3,116.2)" />
</g>
<text 
x="404" 
y="114" 
dx="0" 
class="s1_1"
>R</text>

<g fill="#000000" >
<use xlink:href="#f4_2" transform="matrix(6,0,0,6,422.1,116.2)" />
</g>
<text 
x="415" 
y="116" 
dx="0,0" 
class="s5_1"
>μν</text>

<path d="M318.7,16.4C318.7,8,311.8,1.2,303.4,1.2C295,1.2,288.2,8,288.2,16.4c0,8.4,6.8,15.3,15.2,15.3c8.4,0,15.3,-6.9,15.3,-15.3Z" class="g3_1" />
<g fill="#FF0000" >
<use xlink:href="#f2_3" transform="matrix(10,0,0,10,299.6,21.3)" />
</g>
<text 
x="299" 
y="21" 
dx="0" 
class="s3_1"
>4</text>

<path d="M170.5,16.4C170.5,8,163.7,1.2,155.3,1.2c-8.4,0,-15.2,6.8,-15.2,15.2c0,8.4,6.8,15.3,15.2,15.3c8.4,0,15.2,-6.9,15.2,-15.3Z" class="g3_1" />
<g fill="#FF0000" >
<use xlink:href="#f2_2" transform="matrix(10,0,0,10,151.5,21.3)" />
</g>
<text 
x="151" 
y="21" 
dx="0" 
class="s3_1"
>0</text>

<path d="M57.1,111.6c0,-8.4,-6.8,-15.2,-15.2,-15.2c-8.5,0,-15.3,6.8,-15.3,15.2c0,8.5,6.8,15.3,15.3,15.3c8.4,0,15.2,-6.8,15.2,-15.3Z" class="g4_1" />
<g fill="#000000" >
<use xlink:href="#f5_1" transform="matrix(10,0,0,10,31,115)" />
<use xlink:href="#f6_1" transform="matrix(7,0,0,7,41.1,109.5)" />
</g>
<text 
x="31" 
y="115" 
dx="0" 
class="s6_1"
>Z</text>

<g fill="#000000" >
<use xlink:href="#f7_1" transform="matrix(7,0,0,7,41.1,118.8)" />
</g>
<text 
x="41" 
y="109" 
dx="0" 
class="s7_1"
>*</text>

<text 
x="41" 
y="118" 
dx="0" 
class="s8_1"
>m</text>

<path d="M31.4,257.5c0,-8.4,-6.9,-15.2,-15.3,-15.2c-8.4,0,-15.2,6.8,-15.2,15.2c0,8.4,6.8,15.2,15.2,15.2c8.4,0,15.3,-6.8,15.3,-15.2Z" class="g3_1" />
<g fill="#FF0000" >
<use xlink:href="#f2_3" transform="matrix(10,0,0,10,12.3,262.4)" />
</g>
<text 
x="12" 
y="262" 
dx="0" 
class="s3_1"
>4</text>

<path d="M107.1,385.8c0,-9.3,-7.6,-16.9,-16.9,-16.9c-9.3,0,-16.9,7.6,-16.9,16.9c0,9.3,7.6,16.9,16.9,16.9c9.3,0,16.9,-7.6,16.9,-16.9Z" class="g4_1" />
<g fill="#000000" >
<use xlink:href="#f8_1" transform="matrix(10,0,0,10,85.1,377.3)" />
</g>
<text 
x="85" 
y="377" 
dx="0" 
class="s9_1"
>H</text>

<path d="M244.8,430.8L353.7,391.2" class="g1_1" />
<path d="M242,425.8L430.7,267.5" class="g1_1" />
<path d="M237.6,422.2L408.8,125.6" class="g1_1" />
<path d="M353.7,391.2L244.8,430.8" class="g1_1" />
<path d="M376.5,372L434.8,271" class="g1_1" />
<path d="M371.3,370.2L414.1,127.5" class="g1_1" />
<path d="M430.7,267.5L242,425.8" class="g1_1" />
<path d="M434.8,271L376.5,372" class="g1_1" />
<path d="M439.9,242.2L419.7,127.5" class="g1_1" />
<path d="M408.8,125.6L237.6,422.2" class="g1_1" />
<path d="M414.1,127.5L371.3,370.2" class="g1_1" />
<path d="M419.7,127.5l20.2,114.7" class="g1_1" />
<path d="M287.3,16.4l-115.8,0" class="g3_1" />
<path d="M288.3,22L56.5,106.3" class="g5_1" />
<path d="M291,26.9L28.5,247.1" class="g3_1" />
<path d="M295.3,30.5L98.8,370.9" class="g6_1" />
<path d="M142.9,26.9L53.8,101.6" class="g5_1" />
<path d="M147.2,30.5l-123,213" class="g3_1" />
<path d="M152.5,32.3L93.2,368.8" class="g6_1" />
<path d="M39.2,127L18.9,241.6" class="g5_1" />
<path d="M44.6,127L87.2,368.8" class="g5_1" />
<path d="M18.9,241.6L39.2,127" class="g6_1" />
<path d="M24.2,271.5l57.4,99.4" class="g6_1" />
<path d="M98.8,370.9L295.3,30.5" class="g6_1" />
<path d="M93.2,368.8L152.5,32.3" class="g5_1" />
<path d="M87.2,368.8L44.5,127" class="g6_1" />
<path d="M81.6,370.9L24.2,271.5" class="g6_1" />
<path d="M232.2,420.3l68.4,-388" class="g7_1" />
<path d="M226.5,420.3L158.1,32.3" class="g7_1" />
<path d="M221.1,422.2L49.6,125.1" class="g8_1" />
<path d="M216.7,425.9L28.5,267.9" class="g8_1" />
<path d="M213.9,430.8L106.4,391.7" class="g8_1" />
<path d="M365.8,370.2L306.2,32.3" class="g2_1" />
<path d="M360.6,372L163.4,30.5" class="g2_1" />
<path d="M356.4,375.6L53.8,121.7" class="g7_1" />
<path d="M353.7,380.4L31.3,263" class="g2_1" />
<path d="M352.7,385.8l-245.3,0" class="g7_1" />
<path d="M434.8,244L311.5,30.5" class="g8_1" />
<path d="M430.7,247.5L167.7,26.9" class="g7_1" />
<path d="M428,252.2L56.5,117" class="g7_1" />
<path d="M427.1,257.5l-394.8,0" class="g8_1" />
<path d="M428,262.8L106.4,379.9" class="g8_1" />
<path d="M404.5,101.3L315.9,26.9" class="g8_1" />
<path d="M401.8,106.1L170.5,22" class="g8_1" />
<path d="M400.8,111.6l-343.4,0" class="g7_1" />
<path d="M401.8,117.2L31.3,252" class="g7_1" />
<path d="M404.5,122L103.4,374.7" class="g8_1" />
<path d="M229.4,479.8C251,440.8,359.3,458.1,365.9,407" class="g9_1" />
<path d="M366.6,401.5c-0.6,1.6,-1.8,4.1,-3.1,5.8l4.5,0.5c-0.8,-1.9,-1.4,-4.6,-1.4,-6.3Z" class="g10_1" />
<g fill="#000000" >
<use xlink:href="#f2_4" transform="matrix(10,0,0,10,184.9,495.7)" />
<use xlink:href="#f2_9" transform="matrix(10,0,0,10,195.1,495.7)" />
<use xlink:href="#f2_b" transform="matrix(10,0,0,10,202.7,495.7)" />
<use xlink:href="#f2_6" transform="matrix(10,0,0,10,216.2,495.7)" />
<use xlink:href="#f2_a" transform="matrix(10,0,0,10,223.8,495.7)" />
<use xlink:href="#f2_7" transform="matrix(10,0,0,10,229.8,495.7)" />
<use xlink:href="#f2_8" transform="matrix(10,0,0,10,241.6,495.7)" />
<use xlink:href="#f2_7" transform="matrix(10,0,0,10,250.1,495.7)" />
<use xlink:href="#f2_a" transform="matrix(10,0,0,10,256.9,495.7)" />
<use xlink:href="#f2_7" transform="matrix(10,0,0,10,262.8,495.7)" />
<use xlink:href="#f2_1" transform="matrix(10,0,0,10,269.6,495.7)" />
</g>
<text 
x="184" 
y="495" 
dx="0,-1.3,0,0,1.3,0,0,0,1.3,0,0,0,0" 
class="s3_1"
>You are here!</text>


<defs>
	<path d="M598.9,886.1c61.1,0,77.9,6.1,91.7,10.7c-29.1,6.1,-36.7,7.6,-79.5,7.6c-22.9,0,-45.8,0,-67.2,-9.1c16.8,-9.2,19.9,-9.2,55,-9.2ZM436.9,-313.1c-79.4,0,-154.3,55,-154.3,73.3c0,10.7,9.2,18.4,18.4,18.4c6.1,0,10.7,-1.6,19.8,-9.2c13.8,-10.7,56.6,-44.3,116.1,-44.3c50.5,0,82.5,55,82.5,97.8c0,70.3,-58,88.6,-134.4,113C235.3,-16.7,192.5,-3,139,55C71.8,129.9,71.8,227.6,71.8,256.7c0,276.5,215.4,550,406.4,653.9c-15.3,30.5,-15.3,62.6,-15.3,74.8c0,16.8,0,79.5,29,79.5c15.3,0,21.4,-12.3,21.4,-19.9c0,-10.7,-7.6,-24.4,-7.6,-61.1c0,-10.7,1.5,-38.2,9.2,-56.5c39.7,15.2,74.8,15.2,97.7,15.2c67.3,0,125.3,-4.5,125.3,-44.3c0,-50.4,-99.3,-50.4,-140.5,-50.4c-30.6,0,-65.7,0,-96.3,29C345.3,786.8,161.9,533.2,161.9,299.4c0,-172.6,107,-206.2,206.3,-238.3C411,47.4,484.3,22.9,495,19.9C563.8,-6,605,-56.4,605,-128.2c0,-88.6,-73.3,-184.9,-168.1,-184.9Z" 
	id="f0_1"
	transform="scale(0.001,-0.001)" />

	<path d="M502.6,-380.3c-18.3,0,-160.4,111.5,-250.5,299.4c-84,180.2,-97.8,354.4,-97.8,464.4c0,181.8,36.7,339.1,110,485.8c82.5,166.5,220,276.5,238.3,276.5c10.7,0,18.4,-6.1,18.4,-16.8c0,-7.6,-3.1,-12.2,-9.2,-18.3C296.4,906,250.6,618.8,250.6,381.9c0,-267.3,59.5,-542.2,256.6,-722.5c9.2,-10.7,13.8,-15.3,13.8,-22.9c0,-10.7,-7.7,-16.8,-18.4,-16.8Z" 
	id="f1_1"
	transform="scale(0.001,-0.001)" />

	<path d="M307.1,-16.7C177.2,-16.7,81,38.2,81,132.9c0,79.5,58,100.9,85.5,100.9c16.8,0,58.1,-9.2,58.1,-55c0,-21.4,-15.3,-82.5,-91.7,-82.5C166.5,26,273.5,21.4,308.6,21.4c184.9,0,221.5,123.7,221.5,163.5c0,32,-13.7,56.5,-38.2,74.8c-27.5,19.9,-42.7,22.9,-111.5,36.7c-55,10.7,-96.2,19.9,-126.8,48.9c-19.8,18.3,-48.9,48.9,-48.9,106.9c0,70.3,58.1,223.1,262.8,223.1c113.1,0,187.9,-56.5,187.9,-132.9c0,-50.5,-29,-85.6,-71.8,-85.6c-29,0,-48.9,19.9,-48.9,45.8c0,10.7,6.1,62.7,71.8,68.8c-22.9,48.9,-85.5,65.7,-139,65.7c-19.9,0,-77.9,-1.5,-120.7,-35.2C304,568.3,293.3,519.4,293.3,502.6c0,-38.2,27.5,-68.7,78,-79.4c4.5,-1.5,38.1,-7.6,56.5,-12.2c53.5,-10.7,102.3,-19.9,142.1,-61.1c18.3,-18.4,50.4,-55,50.4,-113.1c0,-65.7,-56.5,-253.5,-313.2,-253.5Z" 
	id="f0_3"
	transform="scale(0.001,-0.001)" />

	<path d="M106.9,-380.3c-15.2,0,-18.3,12.2,-18.3,16.8c0,7.6,6.1,13.7,9.2,18.3C319.3,-138.9,359,165,359,383.5c0,435.4,-168,643.2,-256.6,722.6c-10.7,10.7,-13.8,15.3,-13.8,22.9c0,4.6,3.1,16.8,18.3,16.8c18.4,0,160.5,-111.5,250.6,-299.4C436.9,676.8,455.3,508.8,455.3,383.5c0,-183.4,-36.7,-340.7,-110,-487.3C262.8,-270.3,125.3,-380.3,106.9,-380.3Z" 
	id="f1_2"
	transform="scale(0.001,-0.001)" />

	<path d="M210.8,860.1c-45.8,0,-80.9,39.8,-80.9,81c0,38.2,30.5,81,82.5,81c45.8,0,80.9,-39.7,80.9,-81c0,-38.2,-30.5,-81,-82.5,-81Z" 
	id="f2_5"
	transform="scale(0.001,-0.001)" />

	<path d="M187.9,-16.7C120.7,-16.7,44.3,13.8,44.3,84c0,48.9,38.2,88.6,84,88.6c23,0,56.6,-12.2,56.6,-53.4c0,-42.8,-33.6,-74.9,-71.8,-82.5c32,-19.9,67.2,-19.9,76.3,-19.9c67.3,0,120.7,64.2,145.2,158.9c56.5,213.9,82.5,316.2,82.5,363.6c0,88.6,-53.5,102.4,-82.5,102.4c-52,0,-152.8,-38.2,-204.7,-200.2C126.8,427.8,122.2,424.7,110,424.7c-3.1,0,-18.3,0,-18.3,15.3c0,38.2,87.1,235.3,245.9,235.3c44.3,0,126.8,-15.3,165,-116.1c18.4,35.1,71.8,116.1,160.5,116.1c51.9,0,142,-21.4,142,-100.9c0,-61.1,-48.8,-88.6,-82.5,-88.6c-41.2,0,-58,29.1,-58,53.5c0,36.7,30.5,74.9,73.3,82.5c-32.1,19.9,-68.7,19.9,-76.4,19.9C554.6,641.7,519.4,501.1,510.3,461.4l-52,-209.3C441.5,184.9,432.4,151.3,432.4,117.6c0,-51.9,24.4,-100.8,84,-100.8c48.9,0,152.8,36.7,203.2,200.1c3,10.7,6.1,16.9,19.8,16.9c4.6,0,18.4,0,18.4,-15.3c0,-38.2,-87.1,-235.2,-244.5,-235.2c-91.6,0,-146.6,59.5,-165,116c-4.5,-9.2,-59.5,-116,-160.4,-116Z" 
	id="f3_1"
	transform="scale(0.001,-0.001)" />

	<path d="M661.5,540.8c123.8,0,200.2,39.8,236.8,64.2c87.1,65.7,110,180.3,110,236.8c0,154.3,-168,154.3,-288.7,154.3c-32.1,0,-82.5,0,-96.3,-1.5c-27.5,-4.6,-32,-19.9,-41.2,-58.1L482.8,540.8ZM996.1,-33.5c-77.9,0,-207.8,29,-207.8,166.4c0,22.9,0,36.7,36.7,177.2c9.2,33.7,9.2,44.3,9.2,55c0,58.1,-35.2,137.5,-172.7,137.5l-187.9,0L375.8,110C368.2,82.5,368.2,79.4,368.2,74.9c0,-13.8,1.5,-19.9,35.1,-24.5c24.5,-3,52,-3,58.1,-3c32.1,0,47.4,0,47.4,-19.9C508.8,0,488.9,0,478.2,0C449.2,0,411,1.5,380.4,3.1C334.6,4.6,331.5,4.6,282.6,4.6c-59.5,0,-62.6,0,-94.7,-1.5C161.9,1.5,116.1,0,91.7,0C81,0,68.8,3.1,68.8,19.9c0,27.5,16.8,27.5,45.8,27.5c114.6,0,117.6,13.7,131.4,68.7L452.2,939.6c4.6,16.8,6.1,22.9,6.1,30.5c0,16.8,-10.7,19.9,-36.6,23c-24.5,3,-52,3,-58.1,3c-32.1,0,-45.8,0,-45.8,19.9c0,27.5,18.3,27.5,45.8,27.5l443.1,0c203.2,0,348.3,-97.8,348.3,-230.7C1155,687.5,1026.7,571.4,818.9,517.9C907.5,487.4,962.5,427.8,962.5,340.7c0,-22.9,-7.6,-84,-10.7,-108.5C950.3,221.5,939.6,132.9,939.6,94.7c0,-44.3,3,-90.1,61.1,-90.1c56.5,0,113.1,53.5,139,132.9c6.1,18.3,7.7,26,24.5,26c10.7,0,19.8,-7.7,19.8,-18.4c0,-24.4,-55,-178.6,-187.9,-178.6Z" 
	id="f0_2"
	transform="scale(0.001,-0.001)" />

	<path d="M152.8,-328.4c-41.3,0,-55,32.1,-55,50.4c0,4.6,1.5,9.2,4.6,21.4l213.9,857c4.5,19.9,18.3,73.4,74.8,73.4c24.5,0,53.5,-15.3,53.5,-52c0,-7.6,-15.3,-67.2,-22.9,-102.4C407.9,469,404.9,456.8,391.1,400.3C377.4,343.8,374.3,331.5,360.6,281.1c-12.3,-50.4,-16.8,-70.3,-16.8,-110c0,-30.5,0,-136,134.4,-136c94.7,0,166.5,71.8,200.1,113.1c27.5,35.1,27.5,38.2,35.2,67.2l79.4,317.8c7.7,29,18.4,76.4,24.5,87.1c10.7,21.4,36.6,38.2,62.6,38.2c41.3,0,55,-32.1,55,-50.4c0,-7.7,-7.6,-38.2,-12.2,-56.6L863.2,317.8c-13.8,-56.5,-13.8,-59.6,-29,-117.7c-12.3,-50.4,-16.8,-67.2,-16.8,-87c0,-23,4.5,-78,56.5,-78c59.6,0,91.7,78,116.1,171.2c6.1,24.4,9.2,35.1,32.1,35.1c27.5,0,29,-18.3,29,-21.4c0,-7.6,-21.4,-96.2,-59.6,-157.4C962.5,15.3,922.8,-15.2,867.8,-15.2C834.2,-15.2,730.3,-3,701.3,96.3C658.5,53.5,588.2,-15.2,472.1,-15.2c-16.8,0,-110,0,-172.7,45.8C256.7,-131.3,235.3,-226,227.6,-250.5c-7.6,-32,-21.3,-77.9,-74.8,-77.9Z" 
	id="f4_1"
	transform="scale(0.001,-0.001)" />

	<path d="M165,0c-7.6,0,-30.6,0,-30.6,24.4c0,4.6,7.7,33.7,12.3,48.9l61.1,250.6L244.4,469c9.2,35.2,24.5,94.8,24.5,103.9c0,13.8,-3.1,16.8,-29,19.9c-1.6,0,-19.9,3,-45.9,3c-24.4,0,-44.3,0,-44.3,23c0,35.1,18.4,38.1,45.9,39.7c39.7,3,42.7,3,87,7.6c12.3,0,102.4,7.7,105.5,7.7c24.4,0,25.9,-15.3,27.5,-21.4L270.4,68.8l22.9,6.1l12.3,4.5c171.1,58.1,429.3,217,519.4,534.8c13.8,50.4,53.5,59.6,71.8,59.6c24.5,0,53.5,-15.3,53.5,-52C950.3,611.1,916.7,420.1,715,244.4C580.6,126.8,395.7,32.1,191,0Z" 
	id="f4_2"
	transform="scale(0.001,-0.001)" />

	<path d="M458.3,299.4l0,569.9L85.6,299.4ZM301,0l0,47.4l32.1,0c113,0,116.1,16.8,116.1,71.8l0,132.9l-406.4,0l0,47.3l469,716.6c12.2,18.3,16.8,18.3,30.6,18.3c24.4,0,24.4,-9.2,24.4,-39.7l0,-695.2l152.8,0l0,-47.3l-152.8,0l0,-132.9c0,-55,3.1,-71.8,116.1,-71.8l32.1,0L652.4,4.6l-209.3,0C363.6,4.6,507.2,0,301,0Z" 
	id="f2_3"
	transform="scale(0.001,-0.001)" />

	<path d="M380.4,0c68.8,0,155.9,45.8,178.8,191C576,288.8,576,392.6,576,507.2c0,96.3,0,212.4,-15.3,297.9C531.7,956.4,430.8,983.9,380.4,983.9c-38.2,0,-152.8,-13.8,-181.8,-195.6C186.4,705.8,186.4,605,186.4,507.2c0,-90.1,0,-230.7,16.8,-322.3C230.7,38.2,320.8,0,380.4,0Zm0,-33.5C305.6,-33.5,194,-3,128.3,120.7C65.7,236.8,59.6,374.3,59.6,488.9c0,122.2,7.6,241.4,56.5,346.8c62.7,142.1,174.2,181.8,265.8,181.8c64.2,0,189.5,-24.4,259.8,-171.1C695.1,733.3,702.8,611.1,702.8,488.9C702.8,368.2,695.1,249,646.3,143.6C579,-1.4,462.9,-33.5,380.4,-33.5Z" 
	id="f2_2"
	transform="scale(0.001,-0.001)" />

	<path d="M878.5,53.5c7.6,55,10.7,71.8,13.7,102.3C857.1,113.1,817.4,79.4,774.6,55l0,-1.5ZM165,924.3l0,0c18.3,16.8,47.4,44.3,88.6,67.2l0,1.6l-81,0L165,924.3ZM273.5,53.5L849.4,993.1l-155.8,0L117.6,53.5ZM94.7,0C67.2,0,42.8,0,42.8,27.5c0,4.6,0,7.6,13.7,27.5L631,993.1l-123.8,0c-51.9,0,-158.9,-4.6,-245.9,-61.2C168.1,873.9,154.3,806.7,148.2,770c-3.1,-12.2,-12.2,-22.9,-26,-22.9c-10.7,0,-27.5,7.6,-27.5,29L97.8,796l22.9,206.2c4.6,39.7,4.6,44.3,53.5,44.3l699.7,0c27.5,0,50.4,0,50.4,-27.5c0,-4.6,0,-7.6,-13.7,-27.5L336.1,53.5l217,0c216.9,0,336.1,146.6,362,271.9c4.6,30.6,7.7,45.9,30.6,45.9c12.2,0,26,-10.7,26,-27.5L930.4,42.8C924.3,3.1,924.3,0,878.5,0Z" 
	id="f5_1"
	transform="scale(0.001,-0.001)" />

	<path d="M446.1,51.9c-18.3,0,-47.3,12.3,-47.3,45.9l24.4,246L215.4,204.7C197.1,191,194,191,183.3,191C155.8,191,136,213.9,136,239.9c0,29,13.7,35.1,42.8,47.3c38.1,18.4,94.7,39.7,220,94.7L168.1,478.2C154.3,484.3,136,491.9,136,522.5c0,26,19.8,48.9,47.3,48.9c13.8,0,18.4,-4.6,33.6,-13.8l206.3,-139c-3.1,35.2,-13.8,145.2,-16.8,171.1c-1.5,15.3,-7.6,61.1,-7.6,74.9c0,33.6,29,45.8,47.3,45.8c45.8,0,48.9,-38.2,45.8,-65.7L469,418.6l207.8,139c18.3,13.8,21.4,13.8,32.1,13.8c27.5,0,47.4,-22.9,47.4,-48.9c0,-29,-13.8,-35.1,-42.8,-47.4c-38.2,-18.3,-94.7,-39.7,-220,-94.7L724.2,284.2c13.7,-6.1,32.1,-13.8,32.1,-44.3c0,-26,-19.9,-48.9,-47.4,-48.9c-13.8,0,-16.8,0,-56.5,30.5L469,343.8c3.1,-35.2,13.8,-145.2,16.8,-171.2c1.6,-15.2,7.7,-61.1,7.7,-74.8c0,-33.6,-29.1,-45.9,-47.4,-45.9Z" 
	id="f6_1"
	transform="scale(0.001,-0.001)" />

	<path d="M223.1,-15.2c-24.5,0,-52,15.2,-52,48.8c0,4.6,9.2,42.8,15.3,62.7l48.9,195.5c7.6,33.6,22.9,96.3,33.6,137.5c10.7,41.3,24.4,97.8,24.4,126.8c0,41.3,-10.7,74.9,-50.4,74.9C183.3,631,154.3,556.1,131.4,466C120.7,424.7,119.2,420.1,97.8,420.1c-4.6,0,-26,0,-26,19.9c0,7.6,21.4,94.7,55,151.3c19.9,35.1,55,82.5,120.7,82.5c62.6,0,152.8,-33.7,163.5,-139.1c45.8,61.1,131.4,139.1,258.2,139.1c77.9,0,186.4,-24.5,198.6,-154.4c48.9,64.2,132.9,154.4,270.4,154.4c71.8,0,116.1,-21.4,142.1,-41.3c56.5,-44.3,56.5,-108.5,56.5,-132.9c0,-85.6,-62.6,-247.5,-81,-294.9C1228.3,136,1220.7,116.1,1220.7,81c0,-32.1,6.1,-53.5,38.2,-53.5c61.1,0,126.8,62.6,161.9,184.9c6.1,16.8,7.7,25.9,29.1,25.9c4.5,0,24.4,0,24.4,-19.8c0,-22.9,-67.2,-233.7,-220,-233.7c-77.9,0,-145.1,50.3,-145.1,131.3c0,26,6.1,39.7,22.9,82.5c24.4,64.2,90.1,233.8,90.1,325.4c0,36.7,-4.6,107,-90.1,107C1012.9,631,936.5,543.9,887.6,469C857.1,421.7,857.1,418.6,840.3,352.9c-7.7,-35.1,-16.8,-68.7,-26,-102.3c-9.2,-38.2,-26,-108.5,-33.6,-137.5C773.1,81,760.8,32.1,753.2,18.3C745.6,4.6,721.1,-15.2,693.6,-15.2c-24.4,0,-51.9,15.2,-51.9,48.8c0,7.7,13.7,59.6,21.4,90.2l64.1,256.6c21.4,85.6,26,105.4,26,143.6c0,29.1,-1.5,107,-90.1,107C548.5,631,476.7,551.5,433.9,490.4C389.6,427.8,386.5,415.6,369.7,352.9C362.1,317.8,352.9,284.2,343.8,250.6c-9.2,-38.2,-26,-108.5,-33.7,-137.5C302.5,81,290.3,32.1,282.6,18.3C275,4.6,250.6,-15.2,223.1,-15.2Z" 
	id="f7_1"
	transform="scale(0.001,-0.001)" />

	<path d="M557.6,-1069.3l0,0c105.5,19.8,184.9,111.5,184.9,221.5c0,96.2,-62.6,175.7,-142.1,207.8l-42.8,-429.3Zm-122.2,12.2l44.3,429.3C371.3,-649.2,294.9,-743.9,294.9,-847.8c0,-105.4,70.2,-178.8,140.5,-209.3ZM253.6,-1697.3c-91.7,0,-168,53.5,-168,126.8c0,45.9,33.6,65.7,64.1,65.7c29.1,0,62.7,-19.8,62.7,-64.1c0,-21.4,-12.3,-56.6,-56.6,-62.7c32.1,-27.5,78,-32.1,97.8,-32.1c117.7,0,145.2,140.6,160.4,307.1c3.1,30.6,7.7,79.5,18.4,236.8c-129.9,42.8,-198.6,158.9,-198.6,272c0,125.3,88.6,259.7,255.1,284.1c32.1,264.4,42.8,311.7,62.6,371.3C582.1,-103.8,640.1,0,762.4,0c91.6,0,168,-53.4,168,-126.7c0,-45.8,-33.6,-65.7,-64.1,-65.7c-29.1,0,-62.7,19.9,-62.7,64.2c0,21.4,12.2,56.5,56.5,62.6c-33.6,29,-80.9,32.1,-96.2,32.1c-102.4,0,-125.3,-129.9,-140.6,-297.9c-1.5,-29.1,-7.6,-85.6,-18.3,-246c129.9,-42.8,198.6,-158.9,198.6,-271.9c0,-125.3,-88.6,-259.8,-255.1,-284.2c-24.5,-207.8,-35.2,-293.3,-68.8,-378.9c-38.2,-94.7,-106.9,-184.9,-226.1,-184.9Z" 
	id="f8_1"
	transform="scale(0.001,-0.001)" />

	<path d="M348.3,0l0,47.4l36.7,0c117.6,0,120.7,16.8,120.7,71.8l0,297.9L184.9,939.6c-24.5,39.7,-36.7,56.5,-140.6,56.5l-27.5,0L81,1040.4c70.3,-1.5,134.4,-1.5,194,-1.5c111.5,0,-59.6,4.6,166.5,4.6l0,-47.4c-68.7,0,-106.9,-6.1,-106.9,-38.2c0,-7.6,0,-10.7,10.7,-26L621.8,481.3L873.9,890.7c6.1,9.2,15.3,29,15.3,45.8c0,30.6,-24.5,59.6,-87.1,59.6l39.7,45.8c88.6,-3,136,-3,177.2,-3c61.1,1.5,-41.2,4.6,108.5,4.6l0,-47.4c-48.9,0,-139,-6.1,-195.6,-99.3L637.1,417.1l0,-294.9c0,-59.6,4.6,-74.8,122.2,-74.8l35.1,0L739.4,4.6l-227.6,0C403.3,4.6,571.4,0,348.3,0Z" 
	id="f2_4"
	transform="scale(0.001,-0.001)" />

	<path d="M381.9,21.4c76.4,0,143.7,44.3,177.3,113c33.6,67.3,33.6,149.8,33.6,204.8c0,58,0,146.6,-39.7,212.3c-39.8,65.7,-105.5,99.3,-172.7,99.3c-61.1,0,-132.9,-32,-174.1,-102.3C169.6,481.3,169.6,398.8,169.6,339.2c0,-55,0,-148.2,38.2,-215.4C249,53.5,316.3,21.4,381.9,21.4Zm-1.5,-38.1C201.7,-16.7,42.8,129.9,42.8,326.9c0,191,148.2,357.5,339.1,357.5c184.9,0,337.7,-161.9,337.7,-357.5c0,-194,-154.3,-343.6,-339.2,-343.6Z" 
	id="f2_9"
	transform="scale(0.001,-0.001)" />

	<path d="M400.3,-16.7c-232.2,0,-232.2,138.9,-232.2,258.1l0,229.2c0,135.9,0,140.5,-119.2,140.5l0,47.4l224.6,16.8l0,-507.2c0,-79.5,6.1,-151.3,134.4,-151.3c111.5,0,184.9,103.9,184.9,236.8l0,272c0,74.8,-12.2,85.5,-119.2,85.5l0,47.4l224.6,16.8l0,-542.4c0,-74.8,12.2,-85.5,119.2,-85.5L817.4,0l-220,-16.7l0,137.4C553.1,26,485.8,-16.7,400.3,-16.7Z" 
	id="f2_b"
	transform="scale(0.001,-0.001)" />

	<path d="M319.3,16.8c68.8,0,178.8,52,178.8,197.1l0,152.8C246,357.5,181.8,230.7,181.8,146.7C181.8,70.3,244.4,16.8,319.3,16.8ZM308.6,-16.7C212.4,-16.7,64.2,21.4,64.2,145.1c0,67.3,38.2,146.7,152.7,198.7c96.3,45.8,203.2,50.4,281.2,55l0,56.5c0,136,-87.1,195.5,-162,195.5c-48.9,0,-123.7,-16.8,-165,-70.2C241.4,579,249,528.6,249,510.3C249,470.6,221.5,440,178.8,440c-39.8,0,-70.3,26,-70.3,71.8c0,100.8,105.4,172.6,230.7,172.6c73.3,0,149.7,-24.4,209.3,-84c55,-56.5,55,-116.1,55,-180.3l0,-305.5c0,-7.7,6.1,-76.4,56.5,-76.4c16.8,0,55,9.2,55,97.8l0,85.5l38.2,0l0,-85.5C753.2,12.2,660,-9.1,627.9,-9.1c-71.8,0,-113,64.1,-119.1,125.2C479.7,44.3,409.4,-16.7,308.6,-16.7Z" 
	id="f2_6"
	transform="scale(0.001,-0.001)" />

	<path d="M42.8,0l0,47.4c102.3,0,119.1,0,119.1,68.7l0,409.5c0,74.8,-12.2,85.5,-119.1,85.5l0,47.4l212.3,16.8l0,-168.1c21.4,65.7,76.4,168.1,188,168.1c65.7,0,113,-44.3,113,-93.2c0,-48.9,-38.2,-67.2,-65.7,-67.2c-33.6,0,-65.7,22.9,-65.7,65.7c0,39.7,30.6,58,35.2,59.5c-3.1,1.6,-6.1,1.6,-16.8,1.6c-116.2,0,-180.3,-136,-180.3,-287.3l0,-235.2c0,-55,3,-71.8,116.1,-71.8l32.1,0L349.9,4.6l-175.7,0C102.4,1.5,216.9,0,42.8,0Z" 
	id="f2_a"
	transform="scale(0.001,-0.001)" />

	<path d="M533.2,385c0,59.6,-15.3,265.8,-172.6,265.8c-52,0,-180.3,-38.2,-189.5,-265.8ZM378.9,-16.7C203.2,-16.7,42.8,131.4,42.8,336.1c0,191,140.5,348.3,317.8,348.3C551.5,684.4,634,536.3,634,385c0,-32.1,-4.6,-32.1,-38.2,-32.1l-426.2,0c0,-55,0,-155.8,45.8,-229.1C250.6,67.2,311.7,21.4,388.1,21.4c15.2,0,152.7,0,206.2,157.4c3.1,12.2,6.1,21.3,19.9,21.3c7.6,0,19.8,-3,19.8,-18.3c0,-29,-68.7,-198.5,-255.1,-198.5Z" 
	id="f2_7"
	transform="scale(0.001,-0.001)" />

	<path d="M48.9,0l0,47.4c102.4,0,119.2,0,119.2,68.7l0,794.5c0,74.8,-12.3,85.5,-119.2,85.5l0,47.4l220,16.8l0,-534.7c26,58,93.2,149.7,221.5,149.7c88.6,0,139,-30.6,160.4,-56.5c47.4,-55,47.4,-102.4,47.4,-233.8l0,-291.8C699.7,47.4,737.9,47.4,817.4,47.4L765.4,1.5C686,4.6,646.3,4.6,605,4.6C527.1,1.5,646.3,0,473.6,0l0,47.4c102.4,0,119.2,0,119.2,68.7l0,356c0,87.1,-16.8,169.6,-113.1,169.6c-97.8,0,-206.2,-85.6,-206.2,-244.5l0,-281.1c0,-68.7,16.8,-68.7,119.1,-68.7L340.7,1.5C261.3,4.6,221.5,4.6,180.3,4.6C102.4,1.5,221.5,0,48.9,0Z" 
	id="f2_8"
	transform="scale(0.001,-0.001)" />

	<path d="M212.4,0c-44.3,0,-81,36.7,-81,81c0,44.3,36.7,80.9,81,80.9c44.3,0,80.9,-36.6,80.9,-80.9C293.3,36.7,256.7,0,212.4,0Zm0,285.7c-18.4,0,-19.9,12.2,-21.4,35.1L131.4,1016c0,50.4,41.2,77.9,81,77.9c39.7,0,80.9,-27.5,80.9,-77.9L233.8,319.3c-1.6,-26,-6.2,-33.6,-21.4,-33.6Z" 
	id="f2_1"
	transform="scale(0.001,-0.001)" />


</defs>

<!-- Any embedded fonts defined here -->
<style type="text/css" ><![CDATA[

@font-face {
	font-family: CMR10_9;
	src: url("fonts/CMR10_9.woff") format("woff");
}

@font-face {
	font-family: CMMI7_e;
	src: url("fonts/CMMI7_e.woff") format("woff");
}

@font-face {
	font-family: CMMI6_b;
	src: url("fonts/CMMI6_b.woff") format("woff");
}

@font-face {
	font-family: MSBM10_c;
	src: url("fonts/MSBM10_c.woff") format("woff");
}

@font-face {
	font-family: CMMI10_a;
	src: url("fonts/CMMI10_a.woff") format("woff");
}

@font-face {
	font-family: CMR9_8;
	src: url("fonts/CMR9_8.woff") format("woff");
}

@font-face {
	font-family: CMSY7_d;
	src: url("fonts/CMSY7_d.woff") format("woff");
}

@font-face {
	font-family: CMMI9_7;
	src: url("fonts/CMMI9_7.woff") format("woff");
}

@font-face {
	font-family: CMEX10_f;
	src: url("fonts/CMEX10_f.woff") format("woff");
}

]]></style>

</svg>
